<svg version="1.0" xmlns="http://www.w3.org/2000/svg" width="93.333" height="93.333" viewBox="0 0 70 70"><path d="M26 12.9v5.8l-4.6.6c-8.2.9-14 7.5-13 14.9.4 3.6.3 3.8-2.5 3.8-1.6 0-2.9.4-2.9 1 0 .5 1.6 1 3.5 1s3.5.4 3.5 1c0 2.2 8 9.6 15.8 14.7 4.5 2.9 8.7 5.3 9.2 5.3 2.4 0 17.9-11.1 22.2-15.8 3.3-3.7 5.3-5.2 7.2-5.2 1.4 0 2.6-.5 2.6-1 0-.6-1.2-1-2.7-1-2.7 0-2.8-.2-2.8-5.4 0-4.7-.4-5.9-2.9-8.5-3.4-3.5-8.2-5.4-12.8-4.9-3.1.3-3.3.1-3.9-3.2-.6-3.6-1.2-3-2.4 2.4-.3 1.6-1.4 4-2.4 5.2l-1.8 2.3-2.6-2.7c-1.4-1.5-2.8-4.5-3.2-6.7C28.2 8.4 27.8 7 26.9 7c-.5 0-.9 2.6-.9 5.9zm-1 15.3c0 4-.4 7.9-.9 8.6-.5.9-2.7 1.2-7.2 1l-6.4-.3-.3-3.4C9.5 27 14.8 21 21.8 21H25v7.2zm29-5.7c4.3 2.2 6 5.3 6 10.7V38h-5.9c-5.2 0-6.2.3-7.9 2.5l-2 2.5-.6-2.3c-.8-3-.8-18.2.1-19 1.2-1.2 7.3-.7 10.3.8zm-23 15C32.3 46 33.7 53 34.1 53c1 0 1.1-.6 4.2-17l2.4-12.5.7 11.7c.5 6.5 1.1 11.8 1.4 11.8.4 0 1.8-1.6 3.2-3.5 2.3-3.2 2.9-3.4 7.8-3.5 4.7 0 5.2.2 4.3 1.7-1.6 3.1-7.3 7.9-14.9 12.7-4 2.5-7.5 4.6-7.8 4.6-.3 0-3.8-1.9-7.7-4.3C20.2 50.3 12 43.2 12 41.2c0-.8 2.3-1.2 6.9-1.2h6.8l.7-5.3c.3-2.8.6-6.9.6-9 0-8.1 1.8-2.9 4 11.8zm5.6-10.2c1.8-2.4 1.7-1.1-.5 10.2l-1.7 9-1.2-6.5c-.6-3.6-1.4-8.8-1.8-11.5l-.5-5 2.1 2.8c2.1 2.6 2.3 2.7 3.6 1z"/></svg>