<?xml version="1.0" standalone="no"?>
<!DOCTYPE svg PUBLIC "-//W3C//DTD SVG 20010904//EN"
 "http://www.w3.org/TR/2001/REC-SVG-20010904/DTD/svg10.dtd">
<svg version="1.0" xmlns="http://www.w3.org/2000/svg"
 width="70.000000pt" height="70.000000pt" viewBox="0 0 70.000000 70.000000"
 preserveAspectRatio="xMidYMid meet">
<metadata>
Created by potrace 1.11, written by Peter Selinger 2001-2013
</metadata>
<g transform="translate(0.000000,70.000000) scale(0.100000,-0.100000)"
fill="#000000" stroke="none">
<path d="M260 571 l0 -58 -46 -6 c-82 -9 -140 -75 -130 -149 4 -36 3 -38 -25
-38 -16 0 -29 -4 -29 -10 0 -5 16 -10 35 -10 19 0 35 -4 35 -10 0 -22 80 -96
158 -147 45 -29 87 -53 92 -53 24 0 179 111 222 158 33 37 53 52 72 52 14 0
26 5 26 10 0 6 -12 10 -27 10 -27 0 -28 2 -28 54 0 47 -4 59 -29 85 -34 35
-82 54 -128 49 -31 -3 -33 -1 -39 32 -6 36 -12 30 -24 -24 -3 -16 -14 -40 -24
-52 l-18 -23 -26 27 c-14 15 -28 45 -32 67 -13 81 -17 95 -26 95 -5 0 -9 -26
-9 -59z m-10 -153 c0 -40 -4 -79 -9 -86 -5 -9 -27 -12 -72 -10 l-64 3 -3 34
c-7 71 46 131 116 131 l32 0 0 -72z m290 57 c43 -22 60 -53 60 -107 l0 -48
-59 0 c-52 0 -62 -3 -79 -25 l-20 -25 -6 23 c-8 30 -8 182 1 190 12 12 73 7
103 -8z m-230 -150 c13 -85 27 -155 31 -155 10 0 11 6 42 170 l24 125 7 -117
c5 -65 11 -118 14 -118 4 0 18 16 32 35 23 32 29 34 78 35 47 0 52 -2 43 -17
-16 -31 -73 -79 -149 -127 -40 -25 -75 -46 -78 -46 -3 0 -38 19 -77 43 -75 44
-157 115 -157 135 0 8 23 12 69 12 l68 0 7 53 c3 28 6 69 6 90 0 81 18 29 40
-118z m56 102 c18 24 17 11 -5 -102 l-17 -90 -12 65 c-6 36 -14 88 -18 115
l-5 50 21 -28 c21 -26 23 -27 36 -10z"/>
</g>
</svg>
